<svg width="26" height="26" viewBox="0 0 26 26" fill="none" xmlns="http://www.w3.org/2000/svg">
<path d="M22.8275 10.6377L21.9884 10.6311L21.9888 10.5879L12.614 10.5144L12.5814 14.6809L18.4682 14.7271C17.5903 17.1458 15.2689 18.8688 12.5487 18.8475C9.09723 18.8204 6.32083 16.0001 6.3479 12.5486C6.37497 9.09718 9.19527 6.32078 12.6467 6.34785C14.2399 6.36035 15.6846 6.97274 16.7805 7.96313L19.7499 5.03998C17.9032 3.29159 15.4231 2.20283 12.6794 2.18131C6.92698 2.13619 2.22648 6.76353 2.18136 12.516C2.13624 18.2684 6.76358 22.9689 12.516 23.014C18.2684 23.0591 22.9689 18.4318 23.0141 12.6794C23.0195 11.9809 22.953 11.2986 22.8275 10.6377Z" fill="#FFC107"/>
<path d="M3.42038 7.67694L6.82298 10.2136C7.76698 7.92823 10.0223 6.32712 12.6467 6.34771C14.2399 6.3602 15.6846 6.97259 16.7805 7.96299L19.7499 5.03984C17.9031 3.29144 15.4231 2.20269 12.6794 2.18117C8.67847 2.14979 5.19107 4.38136 3.42038 7.67694Z" fill="#FF3D00"/>
<path d="M12.516 23.0139C15.2065 23.035 17.6593 22.0245 19.5208 20.3646L16.3184 17.6113C15.231 18.4249 13.9067 18.8591 12.5487 18.8474C9.83938 18.8261 7.55248 17.0805 6.70475 14.6629L3.28746 17.2533C4.9849 20.6402 8.46768 22.9822 12.516 23.0139Z" fill="#4CAF50"/>
<path d="M22.8275 10.6375L21.9884 10.6309L21.9888 10.5877L12.6141 10.5142L12.5814 14.6807L18.4682 14.7269C18.0483 15.878 17.3004 16.8809 16.3169 17.6116L16.3184 17.6106L19.5209 20.3639C19.2911 20.5694 22.9732 17.8873 23.0141 12.6791C23.0196 11.9807 22.953 11.2984 22.8275 10.6375Z" fill="#1976D2"/>
</svg>
